<svg width="25" height="24" viewBox="0 0 25 24" fill="none" xmlns="http://www.w3.org/2000/svg">
<path fill-rule="evenodd" clip-rule="evenodd" d="M19.1871 13.3553C19.7971 13.9278 20.4471 14.4663 20.9971 15.0968C21.247 15.3689 21.4651 15.6687 21.6471 15.9903C21.7114 16.0777 21.7521 16.1802 21.7654 16.2879C21.7787 16.3957 21.764 16.505 21.7228 16.6054C21.6816 16.7058 21.6153 16.7939 21.5303 16.8613C21.4452 16.9287 21.3443 16.9732 21.2371 16.9903H18.5421C18.2239 17.0146 17.9043 16.9674 17.6066 16.8522C17.309 16.737 17.0409 16.5566 16.8221 16.3243C16.4471 15.9608 16.1021 15.5743 15.7421 15.1993C15.5994 15.0411 15.4363 14.9025 15.2571 14.7873C15.1889 14.7297 15.1082 14.6888 15.0214 14.6679C14.9347 14.647 14.8442 14.6467 14.7573 14.6669C14.6703 14.6872 14.5893 14.7275 14.5207 14.7846C14.4521 14.8417 14.3978 14.914 14.3621 14.9958C14.1715 15.3669 14.0737 15.7786 14.0771 16.1958C14.0471 16.8023 13.8571 16.9618 13.2171 16.9898C11.8817 17.091 10.5446 16.8165 9.35713 16.1973C8.33886 15.6145 7.45465 14.8238 6.7621 13.8768C5.41302 12.0694 4.26618 10.1196 3.34212 8.06229C3.12712 7.60329 3.28209 7.35779 3.81209 7.34879C4.69209 7.33329 5.57211 7.33329 6.45711 7.34879C6.6181 7.34909 6.77497 7.39965 6.90584 7.49341C7.03671 7.58717 7.13502 7.71946 7.18709 7.8718C7.65689 8.99384 8.25777 10.0564 8.97713 11.0373C9.15887 11.3113 9.38733 11.5513 9.65212 11.7463C9.70454 11.7983 9.76979 11.8355 9.84126 11.8541C9.91273 11.8727 9.98785 11.872 10.059 11.8522C10.1301 11.8323 10.1947 11.794 10.2462 11.741C10.2977 11.6881 10.3342 11.6224 10.3521 11.5508C10.4407 11.3397 10.493 11.1152 10.5071 10.8868C10.5896 10.1123 10.5745 9.33051 10.4621 8.55979C10.4405 8.3355 10.343 8.1253 10.1857 7.96393C10.0284 7.80257 9.82078 7.69969 9.59712 7.67228C9.34212 7.62578 9.37709 7.53379 9.50209 7.39329C9.59849 7.26573 9.72438 7.16342 9.86891 7.09507C10.0134 7.02672 10.1724 6.99438 10.3321 7.0008H13.3821C13.4747 7.00711 13.5651 7.03176 13.6481 7.07334C13.7311 7.11492 13.8049 7.17259 13.8654 7.24299C13.9259 7.31338 13.9718 7.39511 14.0004 7.4834C14.0291 7.5717 14.0398 7.66481 14.0321 7.7573V10.9898C14.0252 11.153 14.0613 11.3152 14.1367 11.46C14.2122 11.6049 14.3244 11.7274 14.4621 11.8153C14.5805 11.8331 14.7015 11.8157 14.81 11.7651C14.9185 11.7144 15.0097 11.633 15.0721 11.5308C15.7693 10.7832 16.3493 9.93418 16.7921 9.01279C16.9971 8.61529 17.1721 8.20178 17.3471 7.78928C17.3924 7.64611 17.4859 7.52305 17.6117 7.44102C17.7375 7.35898 17.8878 7.32306 18.0371 7.3393H20.9671C21.0541 7.33708 21.1411 7.34227 21.2271 7.3548C21.7221 7.4348 21.8571 7.63829 21.7071 8.09879C21.4263 8.80258 21.031 9.45506 20.5371 10.0298C20.0521 10.6758 19.5271 11.2993 19.0421 11.9498C18.5971 12.5433 18.6321 12.8423 19.1871 13.3578V13.3553Z" fill="#2D9CDB"/>
</svg>
