<svg width="25" height="24" viewBox="0 0 25 24" fill="none" xmlns="http://www.w3.org/2000/svg">
<path d="M6.80017 4H18.6933C19.8232 4 20.7469 4.92402 20.7469 6.05392V17.947C20.7469 19.0766 19.8232 20 18.6933 20H6.80017C5.67027 20 4.74561 19.0766 4.74561 17.947V6.05392C4.74561 4.92402 5.67027 4 6.80017 4ZM16.4023 5.77705C16.0056 5.77705 15.682 6.10193 15.682 6.49844V8.22199C15.682 8.61866 16.0056 8.94279 16.4023 8.94279H18.2106C18.6067 8.94279 18.931 8.61866 18.931 8.22199V6.49844C18.931 6.10193 18.6067 5.77705 18.2106 5.77705H16.4023ZM18.9379 10.7662H17.53C17.6635 11.2022 17.7359 11.6621 17.7359 12.1401C17.7359 14.8007 15.5082 16.9586 12.7613 16.9586C10.0151 16.9586 7.78734 14.8007 7.78734 12.1401C7.78734 11.6621 7.86041 11.2022 7.99328 10.7662H6.52441V17.5258C6.52441 17.8758 6.81025 18.1606 7.15998 18.1606H18.3026C18.6526 18.1606 18.9379 17.8758 18.9379 17.5258V10.7662ZM12.7613 8.85191C10.9873 8.85191 9.54828 10.2455 9.54828 11.9662C9.54828 13.6851 10.9873 15.0798 12.7613 15.0798C14.5363 15.0798 15.9754 13.6851 15.9754 11.9662C15.9754 10.2455 14.5363 8.85191 12.7613 8.85191Z" fill="#2D9CDB"/>
</svg>
