<svg width="25" height="24" viewBox="0 0 25 24" fill="none" xmlns="http://www.w3.org/2000/svg">
<path fill-rule="evenodd" clip-rule="evenodd" d="M17.6922 8.08621C17.6809 8.07879 17.6707 8.06968 17.6622 8.0592C17.3631 7.78653 17.0129 7.57602 16.6318 7.43988C16.2507 7.30375 15.8463 7.2447 15.4422 7.2662L15.4122 7.20822C15.418 7.20424 15.4251 7.20247 15.4322 7.20322C16.2022 7.03572 16.6572 6.8627 16.7972 6.6752C16.8117 6.64654 16.8181 6.61449 16.8158 6.58246C16.8135 6.55043 16.8024 6.51966 16.7839 6.49341C16.7654 6.46716 16.7401 6.44642 16.7108 6.43344C16.6814 6.42046 16.6491 6.41571 16.6172 6.41971C16.2537 6.45872 15.8962 6.54096 15.5522 6.6647C15.9572 6.4197 16.1122 6.24723 16.0222 6.15723C15.5415 6.20208 15.0902 6.40866 14.7422 6.74323C14.8601 6.62524 14.9281 6.46645 14.9322 6.29971C14.7278 6.43206 14.5369 6.58413 14.3622 6.75372C14.0641 7.06595 13.79 7.40023 13.5422 7.75372L13.5272 7.77972C13.015 8.5525 12.6301 9.40246 12.3872 10.2972L12.3022 10.3607L12.2872 10.3762C11.9552 9.98204 11.5535 9.65237 11.1022 9.40372C10.4817 9.0288 9.83306 8.70248 9.16217 8.4277C8.36396 8.03637 7.53648 7.70789 6.68719 7.44522C6.69138 7.8882 6.82145 8.32085 7.06226 8.69269C7.30306 9.06452 7.64466 9.36021 8.04718 9.54523V9.5607C7.73228 9.55615 7.41858 9.60035 7.11719 9.69171C7.17719 10.5117 7.79055 11.0776 8.95721 11.3892L8.95221 11.4047C8.74284 11.3873 8.53223 11.4178 8.33643 11.4939C8.14062 11.5701 7.96476 11.6899 7.8222 11.8442C8.02284 12.1987 8.3245 12.4853 8.68872 12.6676C9.05295 12.8499 9.46321 12.9196 9.86719 12.8677C9.6979 12.9416 9.54493 13.0483 9.41718 13.1817C9.33331 13.26 9.27263 13.3599 9.24176 13.4704C9.21089 13.5809 9.21104 13.6978 9.24219 13.8082C9.36356 13.9941 9.53657 14.1404 9.73999 14.2292C9.94341 14.318 10.1684 14.3455 10.3872 14.3082L10.4172 14.3452L10.4022 14.3602C9.95077 14.8159 9.40436 15.1664 8.802 15.3869C8.19965 15.6073 7.55611 15.6923 6.91718 15.6357L6.89722 15.6462C5.90462 15.5747 4.96376 15.1758 4.22217 14.5122C5.18698 15.8248 6.52008 16.8212 8.05219 17.3747C9.81668 17.9433 11.7084 17.9869 13.4972 17.5002H13.5272C15.2966 17.0127 16.8654 15.9756 18.0072 14.5387C18.5194 13.875 18.8826 13.1088 19.0722 12.2922C19.44 12.341 19.8142 12.298 20.1614 12.1672C20.5086 12.0363 20.8181 11.8216 21.0622 11.5422L21.0522 11.5252C20.4553 11.6222 19.8445 11.5881 19.2622 11.4252V11.3302C19.2622 11.3257 19.2622 11.3257 19.2672 11.3302C20.2372 11.2262 20.8122 10.9302 20.9972 10.4372C20.3516 10.6864 19.6378 10.6938 18.9872 10.4582C18.8417 9.54198 18.3842 8.70408 17.6922 8.08621Z" fill="#2D9CDB"/>
</svg>
